PathFileType	4	(X/Y/Z)	C:/Users/beibeiliu/ov580/test_trc/User2\sequence.9_training_dense_right.trc
DataRate	CameraRate	NumFrames	NumMarkers	Units	OrigDataRate	OrigDataStartFrame	OrigNumFrames
120	120	19	19	mm	120	1	353
Frame#	Time	ThumbCMC			ThumbMCP			ThumbIP			ThumbTip			IndexMCP			IndexPIP			IndexTip			MiddleMCP			MiddlePIP			MiddleTip			RingMCP			RingPIP			RingTip			PinkyMCP			PinkyPIP			PinkyTip			BackHand1			BackHand2			BackHand3	
		X0	Y0	Z0	X1	Y1	Z1	X2	Y2	Z2	X3	Y3	Z3	X4	Y4	Z4	X5	Y5	Z5	X6	Y6	Z6	X7	Y7	Z7	X8	Y8	Z8	X9	Y9	Z9	X10	Y10	Z10	X11	Y11	Z11	X12	Y12	Z12	X13	Y13	Z13	X14	Y14	Z14	X15	Y15	Z15	X16	Y16	Z16	X17	Y17	Z17	X18	Y18	Z18	
0	0	52.3721	39.2747	95.2674	20.677	32.0728	83.9836	-5.10248	21.203	63.2191	-22.5115	11.3007	50.393	42.7198	33.1754	10.6168	30.3246	24.2604	-16.3667	18.9364	18.9482	-36.9003	73.2381	32.01	-4.35796	65.2019	22.9148	-32.8476	64.6488	13.5859	-63.8228	96.7188	24.2647	-2.52653	96.6123	16.8355	-28.2971	97.7994	11.2896	-56.7215	120.89	16.2252	12.257	129.328	8.25033	-10.9417	137.356	4.9423	-31.2541	104.942	45.293	49.1904	112.387	60.3799	79.6524	75.1295	57.5094	71.6633	
1	0.00833333	49.304	37.8614	92.1172	25.2445	30.2237	84.4408	-3.28139	20.3654	61.5387	-23.6745	11.2945	54.1419	42.6414	31.1397	11.7368	28.4437	24.5632	-14.3339	21.5715	16.6143	-40.354	69.5004	30.717	-1.92237	63.6564	20.4371	-35.5452	63.6799	12.7041	-64.6089	94.0571	23.0887	-3.9215	101.031	15.4506	-24.6359	96.5098	10.3727	-55.3468	120.155	14.9756	13.6017	129.835	7.25904	-11.3544	134.046	3.21771	-34.7248	104.453	43.8708	50.1642	112.416	58.2779	80.1005	73.6076	56.6301	69.4737	
2	0.0166667	50.2688	37.6642	97.8498	25.3552	28.6089	82.3518	-3.82194	19.9856	63.1775	-20.8725	10.5914	51.4375	43.3388	29.924	11.5816	29.4999	23.8664	-10.0782	23.7051	16.6403	-37.1104	69.2453	28.1924	-6.49752	64.1997	19.1945	-34.5645	64.7493	10.6291	-65.47	97.6747	22.1955	-2.32631	97.6378	14.8937	-24.0323	98.1378	8.87438	-53.808	121.016	15.0464	12.3032	130.13	5.59226	-8.22919	135.063	3.19551	-30.1429	105.481	42.7985	49.2105	115.122	57.1697	76.956	76.3839	56.1355	70.708	
3	0.025	49.4255	36.7233	94.6867	24.7726	28.8717	85.0204	-2.74466	19.159	61.2776	-22.6312	9.62348	51.3925	42.6675	29.7372	13.3959	29.0915	21.8085	-14.57	24.9069	15.1334	-39.4054	74.4948	27.8546	-5.62878	68.9053	17.5655	-36.7382	68.2403	8.4851	-64.3545	96.9072	22.3661	-4.57418	99.7531	14.447	-28.8014	97.6122	7.79354	-54.9949	121.852	14.1489	13.0733	129.628	4.97875	-6.93653	138.521	1.89106	-33.8677	103.625	43.9	48.7322	115.275	55.1891	79.8281	72.8211	53.7346	67.9894	
4	0.0333333	49.4848	37.2824	92.7429	26.9368	28.3092	82.9985	-1.55522	19.3726	62.6149	-20.8664	8.78879	49.7715	44.4468	29.1751	8.48275	31.2519	22.9699	-12.5416	26.7389	14.2532	-39.3487	71.8488	29.1299	-2.49492	68.0835	17.1603	-36.9471	66.5779	9.79223	-63.23	98.1569	21.5944	-0.265564	98.2763	13.2521	-29.7842	99.3783	8.21381	-57.0167	124.625	13.4439	15.2294	132.54	5.20949	-12.2465	140.236	0.362323	-34.7708	106.435	43.4909	51.0462	119.375	56.6125	77.7516	80.3695	54.0642	69.49	
5	0.0416667	50.8887	35.1083	91.6882	29.5659	26.2481	81.656	2.79746	17.2207	65.5036	-17.3191	7.81883	52.0285	43.3745	27.4529	10.9535	35.8606	20.1832	-15.9356	21.5046	14.0323	-40.3438	75.5304	27.4775	-3.02054	72.4025	17.5727	-34.0142	67.6631	9.21425	-61.5102	98.2123	19.8969	-3.61262	102.993	12.7153	-26.5063	98.932	6.42704	-52.7475	127.605	11.7702	12.1351	131.618	4.30138	-8.71012	143.68	0.653523	-35.1511	111.076	40.2352	47.8782	117.144	53.5053	76.2042	80.1942	51.7315	65.9705	
6	0.05	53.8717	33.5146	92.1708	27.3505	27.321	83.8183	-1.58815	18.2154	64.0167	-19.8428	7.84008	53.8975	45.2386	26.655	10.387	31.5656	19.9868	-14.5403	27.8832	12.8513	-40.5797	73.3011	27.5508	-3.71522	70.7569	17.1771	-33.6309	68.9037	8.3268	-63.4782	103.082	19.7624	-3.60757	104.815	12.1552	-26.5984	103.382	6.48951	-52.7929	125.268	11.6985	14.651	136.768	2.38401	-9.99044	144.402	-0.878391	-35.2418	108.732	41.9954	51.109	115.912	53.6228	79.1155	78.6601	50.9563	67.514	
7	0.0583333	54.5688	34.1288	96.7588	28.1453	26.9589	83.595	0.793055	17.3659	64.4975	-19.2811	7.94544	52.0232	44.2226	26.7701	10.6673	35.1656	17.8005	-16.9191	25.9717	11.7535	-42.295	76.082	25.147	-5.36663	71.8026	15.3916	-34.8559	72.3492	6.17106	-67.5611	104.539	17.7067	-3.76757	106.736	10.7001	-27.5164	101.546	6.18347	-52.4334	126.435	11.4692	16.2588	133.959	2.71382	-6.79423	145.36	0.181348	-31.8083	108.005	41.3642	47.0381	117.827	54.4643	80.535	77.9541	52.2496	70.6829	
8	0.0666667	56.6528	32.5588	91.1252	29.0032	26.4644	84.0311	4.18565	16.5075	65.4446	-16.9481	6.56029	53.873	46.9821	25.1204	8.88255	35.3799	18.7361	-15.2522	29.6329	11.7415	-38.4055	78.1524	25.1913	-4.49503	73.5905	13.7828	-37.2091	71.5689	6.46699	-61.3239	102.63	19.292	-0.0913535	104.502	10.4679	-24.6837	104.323	5.224	-55.4397	129.155	10.9837	14.5669	134.674	1.52343	-9.77432	146.855	-2.53535	-29.0654	113.73	40.7908	47.5046	121.376	52.4411	76.8072	82.7729	50.7721	70.5261	
9	0.075	56.1488	34.5774	95.7965	28.9663	25.5951	83.3209	3.11572	16.9978	65.8407	-17.6618	7.34654	51.9478	49.2063	25.6453	8.03807	35.0848	18.7318	-11.584	27.6265	10.3703	-40.8149	74.5987	25.3569	-6.94179	72.9948	14.0081	-37.0783	70.1798	7.23475	-62.3378	103.758	19.0332	-0.695657	103.41	10.4602	-25.0426	102.505	4.80957	-54.0108	131.577	10.5362	14.2415	136.102	1.80383	-9.49414	142.569	-1.07286	-32.2915	109.699	39.2217	51.1806	121.288	51.2498	75.6352	85.087	52.4357	69.8802	
10	0.0833333	57.7491	33.8001	91.581	26.8102	27.0587	81.4434	-0.211426	16.6676	64.9875	-17.5111	5.97666	50.1185	48.2831	26.6829	11.7747	33.7472	18.1199	-15.7189	31.103	11.5359	-39.741	77.3857	24.3915	-6.6082	76.2639	15.406	-34.1937	72.5887	6.55314	-63.2198	105.206	18.0391	-4.66548	105.147	10.8237	-26.344	103.491	4.81261	-54.15	132.058	9.56838	13.7697	135.567	1.39977	-9.8489	143.795	-1.7672	-35.679	110.546	40.1818	52.1411	120.986	54.1142	78.8423	84.1712	50.2841	70.6497	
11	0.0916667	57.5961	33.9837	96.0182	32.3306	26.1494	81.4166	0.771891	16.401	60.3684	-19.1527	6.60853	48.3084	46.3217	25.946	9.73162	36.7317	18.616	-16.3315	28.5229	10.7055	-41.987	75.7511	25.7146	-3.37094	74.8241	15.6676	-35.8377	69.8665	7.8692	-63.7968	104.817	18.7924	-4.16211	106.5	10.3882	-26.2513	102.759	4.31756	-56.2579	127.538	10.58	9.47807	136.862	2.00241	-12.9654	144.596	-1.99114	-34.2689	111.842	39.3093	46.5975	120.142	52.9211	77.6385	79.4509	49.7759	67.5002	
12	0.1	55.0993	34.8688	95.3485	31.1549	26.494	81.0213	3.92286	16.8	64.1432	-15.8703	7.86596	50.7965	44.8623	27.2835	7.49713	37.2247	19.0124	-16.4007	27.1974	12.1522	-37.37	74.043	26.0457	-8.31966	75.2466	14.673	-38.2798	71.678	7.17099	-64.4562	102.584	19.0414	-5.51675	106.433	10.5836	-29.9854	99.7599	6.20129	-56.173	128.952	11.8809	9.52138	132.429	3.2559	-12.6138	138.328	-0.0399518	-35.8735	110.169	42.4395	47.5665	119.523	52.4946	76.9972	80.5959	53.2941	70.2022	
13	0.108333	57.9374	33.9411	91.4274	29.8926	26.6325	80.2062	5.09137	18.0811	60.5644	-14.9926	8.7051	50.7139	49.3248	27.4717	9.03375	38.8217	20.2448	-16.7864	27.8352	12.9393	-43.5924	78.7006	27.2483	-4.88782	74.0622	16.8911	-34.221	70.2939	8.15246	-66.6672	103.571	19.1687	-6.78397	98.3765	12.0009	-27.3381	99.031	7.22905	-52.6782	128.215	13.5111	12.4777	130.955	4.72799	-14.8639	131.784	3.2576	-34.6606	110.206	42.8308	50.8161	119.19	53.4227	75.7177	79.6757	54.1729	70.5452	
14	0.116667	55.6907	35.1412	91.5741	27.4084	28.8821	82.0317	4.15591	19.7729	59.4131	-17.5574	11.2413	43.816	45.4558	29.1527	5.62602	38.3176	20.2685	-19.4512	28.3123	14.5145	-41.4938	72.4073	27.414	-6.02071	72.5676	17.6976	-33.6442	66.6883	9.65117	-65.2642	102.502	20.891	-5.75645	98.8458	13.8019	-31.5819	94.181	9.18239	-57.9984	124.112	14.7921	11.4091	129.336	8.48527	-12.5079	128.649	6.8076	-39.7856	112.542	42.7352	48.287	117.393	55.6204	77.4043	79.2546	52.3583	66.9736	
15	0.125	54.1425	37.5084	91.4371	29.3579	29.5346	79.902	3.5693	21.1108	59.4043	-13.7954	11.6155	45.1878	45.0712	30.3248	6.55714	35.5978	21.1256	-18.7831	27.6223	15.6719	-41.8154	72.048	27.9469	-8.28659	65.5976	18.3987	-36.581	62.4908	12.3774	-63.1327	96.1665	23.0302	-6.44121	100.318	16.2474	-27.7303	94.257	11.5221	-56.8288	122.633	17.0181	9.78669	124.394	10.0576	-14.1461	122.731	9.41644	-39.2343	113.744	45.5951	48.3058	120.539	56.9505	73.8939	80.4582	54.4677	70.0174	
16	0.133333	57.3956	37.9237	91.4192	27.4432	32.3017	78.7151	5.59041	22.4409	53.3011	-13.5567	12.8011	39.9955	44.8637	31.716	5.34934	35.0269	23.4139	-17.5671	31.6469	16.412	-45.5138	70.3367	32.1182	-5.24158	64.5117	21.2826	-33.7785	64.7563	14.0177	-63.0644	95.7867	25.9437	-2.46386	94.2928	17.3839	-30.5585	88.7272	14.1349	-57.7233	121.181	19.7003	11.2167	117.475	11.8201	-17.6208	115.606	11.6667	-41.432	111.124	48.3821	48.8965	120.433	60.1679	76.9538	81.0574	56.3151	70.5214	
17	0.141667	53.582	40.4807	90.8601	29.0861	32.5959	74.6228	3.7557	24.1492	55.5833	-11.6082	14.9247	40.1155	47.4321	32.3689	4.15162	39.3213	24.118	-19.3863	34.0568	16.4763	-43.5189	70.9035	30.9364	-8.31521	64.2873	21.0023	-37.0232	57.7985	15.4247	-63.6479	92.2162	25.999	-5.59114	93.3856	17.0183	-32.3	84.6022	14.0527	-54.634	115.424	20.9783	7.70746	113.95	13.5098	-17.9663	114.769	14.4595	-39.304	111.206	49.3736	48.0904	119.375	61.5955	78.7034	77.0036	57.7154	71.0062	
18	0.15	52.1296	42.8669	95.9412	27.258	35.879	75.4918	3.0579	26.3312	55.3648	-13.1343	17.3452	37.2943	45.1551	33.8456	7.60621	40.7244	25.4114	-16.6333	38.2047	17.39	-46.4157	66.2857	32.0342	-7.85732	64.6397	21.8586	-31.965	60.4949	15.2117	-64.0316	95.8649	26.9075	-2.89749	89.9448	19.0642	-26.3276	81.7962	14.046	-54.6388	114.757	21.6394	11.691	108.833	14.6585	-16.9601	108.433	13.6193	-36.2627	105.871	49.6175	48.0693	114.932	59.4875	78.3041	78.8097	59.3174	69.7159	
